<svg xmlns="http://www.w3.org/2000/svg" width="60.031" height="78.989" viewBox="0 0 60.031 78.989">
  <g id="Icon_ionic-ios-document" data-name="Icon ionic-ios-document" transform="translate(-7.313 -3.938)">
    <path id="Trazado_14" data-name="Trazado 14" d="M24.354,23.475h17.97a.978.978,0,0,0,.987-.987h0A5.844,5.844,0,0,0,41.2,17.965L26.131,5.406a6.342,6.342,0,0,0-4.068-1.461h0A1.458,1.458,0,0,0,20.6,5.406V19.723A3.75,3.75,0,0,0,24.354,23.475Z" transform="translate(24.033 0.013)" fill="#c4c4c4"/>
    <path id="Trazado_15" data-name="Trazado 15" d="M39.5,19.735V3.938H13.632a6.338,6.338,0,0,0-6.319,6.319V76.607a6.338,6.338,0,0,0,6.319,6.319H61.025a6.338,6.338,0,0,0,6.319-6.319V28.621H48.387A8.9,8.9,0,0,1,39.5,19.735Z" transform="translate(0)" fill="#c4c4c4"/>
  </g>
</svg>
